<svg xmlns="http://www.w3.org/2000/svg" xmlns:xlink="http://www.w3.org/1999/xlink" fill="none" version="1.1" width="62.0413818359375" height="60" viewBox="0 0 62.0413818359375 60"><defs><linearGradient x1="0.5" y1="0" x2="0.9999999403953552" y2="1" id="master_svg0_1_250"><stop offset="0%" stop-color="#6C33F0" stop-opacity="1"/><stop offset="100%" stop-color="#4133F0" stop-opacity="1"/></linearGradient><filter id="master_svg1_265_09295" filterUnits="objectBoundingBox" color-interpolation-filters="sRGB" x="-0.4205940997552027" y="-0.444448494653759" width="1.8411881995104054" height="1.888896989307518"><feFlood flood-opacity="0" result="BackgroundImageFix"/><feColorMatrix in="SourceAlpha" type="matrix" values="0 0 0 0 0 0 0 0 0 0 0 0 0 0 0 0 0 0 127 0"/><feOffset dy="0" dx="0"/><feGaussianBlur stdDeviation="4"/><feColorMatrix type="matrix" values="0 0 0 0 0.23434938490390778 0 0 0 0 0.16118836402893066 0 0 0 0 0.7142857313156128 0 0 0 1 0"/><feBlend mode="normal" in2="BackgroundImageFix" result="effect1_dropShadow"/><feBlend mode="normal" in="SourceGraphic" in2="effect1_dropShadow" result="shape"/></filter></defs><g><g><rect x="7.02947998046875" y="6" width="48" height="48" rx="8" fill="url(#master_svg0_1_250)" fill-opacity="1"/></g><g filter="url(#master_svg1_265_09295)"><g><path d="M29.81308808706665,15.937824775897216C31.07717008706665,13.514427175897216,33.40330208706665,12.303112625897217,34.408358087066645,12.000379979607217L28.54624408706665,32.171173075897215L24.74065008706665,32.17118207589722C25.01192508706665,31.270713075897216,25.327776087066653,30.175180075897217,25.669601087066653,28.979589075897216L19.64821288706665,28.979589075897216Q18.40973138706665,28.979589075897216,17.29991388706665,29.842857075897218Q16.18214468706665,30.712310075897218,15.85660408706665,31.934503075897215Q15.54456088706665,33.106019075897215,16.19444798706665,33.959712075897215Q16.84884218706665,34.819324075897214,18.08538628706665,34.819324075897214L26.19828708706665,34.819324075897214L26.19850508706665,34.81850607589722L28.01351608706665,34.81849807589722L27.07920608706665,38.32621507589722L25.264200087066648,38.32620807589721L25.26441708706665,38.32538907589722L17.15151648706665,38.32538907589722Q14.404612087066651,38.32538907589722,12.96183442706665,36.430156075897216Q11.53135156706665,34.55107407589722,12.22829675706665,31.934503075897215Q12.93650483706665,29.275648075897216,15.37017778706665,27.382623075897214Q17.82451768706665,25.473522075897215,20.58208228706665,25.47352307589722L26.67202508706665,25.47352307589722C27.81426908706665,21.504692575897216,29.03797008706665,17.423815775897218,29.81308808706665,15.937824775897216Z" fill-rule="evenodd" fill="#FFFFFF" fill-opacity="1"/></g><g transform="matrix(-1,0,0,-1,100.0826997756958,96.00002956390381)"><path d="M67.8540748878479,51.9374227819519C69.1181588878479,49.51402518195191,71.4442888878479,48.302710831951906,72.4493448878479,47.999978125094906L65.2356388878479,74.3244507819519L65.1209758878479,74.3244507819519L65.1205268878479,74.3261387819519L63.3055208878479,74.3261317819519L63.3057378878479,74.32531278195191L55.1928372878479,74.32531278195191Q52.4459328878479,74.32531278195191,51.0031552278479,72.4300797819519Q49.5726723678479,70.5509977819519,50.2696175578479,67.9344267819519Q50.9778256378479,65.2755717819519,53.4114985878479,63.3825467819519Q55.8658384878479,61.4734457819519,58.623403087847905,61.47344678195191L62.1356638878479,61.47344678195191L61.2017938878479,64.97951278195191L57.6895336878479,64.97951278195191Q56.4510521878479,64.97951278195191,55.3412346878479,65.8427807819519Q54.2234654878479,66.71223378195191,53.8979248878479,67.9344267819519Q53.5858816878479,69.10594278195191,54.2357687878479,69.9596357819519Q54.8901629878479,70.8192477819519,56.1267070878479,70.8192477819519L62.5920468878479,70.8192477819519C64.2463528878479,64.5146857819519,66.82599688784791,53.90837238195191,67.8540748878479,51.9374227819519Z" fill-rule="evenodd" fill="#FFFFFF" fill-opacity="1"/></g></g></g></svg>