<svg xmlns="http://www.w3.org/2000/svg" xmlns:xlink="http://www.w3.org/1999/xlink" fill="none" version="1.1" width="20" height="20" viewBox="0 0 20 20"><defs><clipPath id="master_svg0_265_09465"><rect x="0" y="0" width="20" height="20" rx="0"/></clipPath></defs><g clip-path="url(#master_svg0_265_09465)"><g><path d="M17.95441,2.878477455L17.122985999999997,2.047053929C17.091611999999998,2.015679457,17.052394,2.001953125,17.011214000000002,2.001953125C16.975130999999998,2.001953125,16.940554,2.013998006,16.911441,2.036768477C16.902943,2.043415532,16.895628000000002,2.050869297,16.887999,2.058498569L15.407195,3.539302325C14.74637,3.090255125,13.977695,2.866712035,13.209021,2.866712035C12.205038,2.866712035,11.2010546,3.249088425,10.4343405,4.0158021250000004L8.4361792,6.013963725C8.375391,6.074751825,8.375391,6.174757925,8.4361792,6.235546125L13.763957,11.563323925C13.795331,11.594697925,13.834549,11.608424225,13.875729,11.608424225C13.914947,11.608424225,13.956125,11.592737225,13.9875,11.563323925L15.985662,9.565162225C17.336725,8.212137725,17.495558000000003,6.119852525,16.462161000000002,4.594269025L17.948777,3.1076530250000003C17.952531999999998,3.1038981249999997,17.956124000000003,3.100349425,17.959636,3.096366025C18.015144,3.033399225,18.013403,2.937470315,17.95441,2.878477455ZM11.3108654,10.680916825C11.2500772,10.620128625,11.1500711,10.620128625,11.089283,10.680916825L9.783320400000001,11.986879325L8.0126238,10.216182725L9.320547099999999,8.908258925C9.3813353,8.847470725,9.3813353,8.747464625,9.320547099999999,8.686677025L8.6067777,7.972907525C8.545989500000001,7.912119425,8.4459834,7.912119425,8.3851957,7.972907525L7.0772719,9.280830824999999L6.2340832,8.437642125C6.2027087,8.406267625,6.1634908,8.392540924999999,6.1223116,8.392540924999999C6.0830936,8.392540924999999,6.0419145,8.408228425,6.01054,8.437642125L4.0143392,10.435803425C2.66327596,11.786867125,2.50444269,13.881113125,3.5378394,15.406696125L2.04559103,16.898945124999997C1.984802989,16.959733125,1.984802989,17.059739125,2.04559103,17.120527125000002L2.87701458,17.951951125C2.90838903,17.983325125,2.94760716,17.997051125,2.9887861,17.997051125C3.0248692,17.997051125,3.0594467,17.985006124999998,3.0885607,17.962236125C3.0970635,17.955588125,3.1043749,17.948134125,3.1120076,17.940501125L4.5928061,16.459702125C5.2536309,16.908749125,6.0223055,17.132293125,6.7909799,17.132293125C7.7949634,17.132293125,8.7989464,16.749916125,9.565660000000001,15.983203125L11.5638218,13.985041125C11.6246099,13.924252125,11.6246099,13.824246125,11.5638218,13.763459125L10.7206326,12.920270125L12.028556,11.612346625C12.089344,11.551558525,12.089344,11.451552425,12.028556,11.390764225L11.3108654,10.680916825Z" fill="#302DF0" fill-opacity="1" style="mix-blend-mode:passthrough"/></g></g></svg>