<svg xmlns="http://www.w3.org/2000/svg" xmlns:xlink="http://www.w3.org/1999/xlink" fill="none" version="1.1" width="40" height="40" viewBox="0 0 40 40"><defs><linearGradient x1="0.5" y1="0" x2="0.9999999403953552" y2="1" id="master_svg0_183_20442"><stop offset="0%" stop-color="#6C33F0" stop-opacity="1"/><stop offset="100%" stop-color="#4133F0" stop-opacity="1"/></linearGradient></defs><g><g><rect x="0" y="0" width="40" height="40" rx="8" fill="url(#master_svg0_183_20442)" fill-opacity="1"/></g><g><g><path d="M18.761129543945312,7.3824358C20.738604543945314,5.50456473,23.852380543945312,5.54474255,25.780744543945314,7.4730115999999995L25.872579543945314,7.5661031C26.931903543945314,8.6802835,27.42235554394531,10.2183952,27.203538543945314,11.7401319C28.72645354394531,11.5217466,30.26548354394531,12.013124000000001,31.380084543945312,13.073606999999999L31.471916543945312,13.162924799999999L31.532302543945313,13.2220507L31.621618543945313,13.3164005C33.46477154394531,15.2573929,33.46477154394531,18.301931,31.621618543945313,20.242924000000002L31.532302543945313,20.336017L21.23812454394531,30.628937L21.19535254394531,30.68177C21.108069543945312,30.814663,21.12592154394531,30.990549,21.23812454394531,31.103199L23.351556543945314,33.216631C23.71825954394531,33.613651000000004,23.705905543945313,34.229424,23.323575543945314,34.611418C22.941244543945313,34.993408,22.325462543945314,35.005215,21.92876554394531,34.638165L19.81533254394531,32.52599C18.91550754394531,31.626148,18.896536543945313,30.173197,19.77256054394531,29.250168L30.163602543945313,18.857868C31.29006954394531,17.670635,31.265518543945312,15.8020678,30.10825154394531,14.6448402L30.049123543945313,14.5857143L29.993772543945312,14.53162C28.806878543945313,13.4048114,26.93831854394531,13.4288039,25.780744543945314,14.5857143L17.186119543945313,23.18034L17.148380543945315,23.216824C16.741786943945314,23.571548,16.127784743945313,23.542498,15.756502143945312,23.150961C15.385218643945313,22.759428,15.388784443945312,22.144749,15.764585543945312,21.757548L24.414562543945312,13.1088281C25.541847543945313,11.9214325,25.517291543945312,10.051921799999999,24.359210543945313,8.8945429L24.134029543945314,8.6920059C22.95694754394531,7.7312552,21.249157543945312,7.7953848,20.147441543945313,8.8417072L20.09083254394531,8.8958008L8.709746143945313,20.276887000000002L8.672006343945313,20.312111C8.265412543945313,20.666849,7.651401403945313,20.637802,7.280113693945313,20.246263C6.908826007945312,19.854722000000002,6.912398166945312,19.240035,7.288211193945313,18.852836L18.668039543945312,7.4730086L18.761129543945312,7.3824358Z" fill="#FFFFFF" fill-opacity="1" style="mix-blend-mode:passthrough"/></g><g><path d="M21.58089872774048,10.257712050682374C21.987200527740477,9.929348570682373,22.580871527740477,9.966158710682373,22.94328652774048,10.348339620682372C23.297170527740477,10.721527870682372,23.310512527740478,11.297435480682374,22.98557852774048,11.685867880682373C22.95363052774048,11.724059480682373,22.917580527740476,11.759376980682372,22.88237452774048,11.794588180682373L14.519193627740478,20.15901798068237C13.340513327740478,21.337698980682372,13.340513927740478,23.248718980682373,14.519195127740478,24.427398980682373C15.697875027740478,25.606079980682374,17.608892927740477,25.606076980682374,18.78757282774048,24.427396980682374L27.11351352774048,16.100213080682373C27.174382527740477,16.039334780682374,27.23523552774048,15.976273080682372,27.304718527740476,15.925446480682373C27.69944852774048,15.636704880682373,28.254824527740478,15.672051880682373,28.609636527740477,16.026865480682375C28.96517652774048,16.382403380682373,28.999943527740477,16.93932248068237,28.70928852774048,17.334199880682373C28.658554527740478,17.403122380682372,28.59735552774048,17.461948380682372,28.536844527740477,17.522467580682374L20.213375527740478,25.847180980682374C20.21137002774048,25.849186980682372,20.209578027740477,25.850979980682375,20.20756862774048,25.852983980682374C18.28314212774048,27.771750980682373,15.18388892774048,27.815150980682372,13.206554027740479,25.95437898068237C13.194955827740479,25.943462980682373,13.183745827740479,25.932738980682373,13.172250527740479,25.92171598068237C13.122524727740478,25.874033980682373,13.074443227740478,25.827493980682373,13.026692127740478,25.777833980682374C11.133341817740478,23.808807980682374,11.156652417740478,20.677668980682373,13.09662392774048,18.737260380682372C13.097443227740479,18.736442080682373,13.098069427740478,18.735814580682373,13.098888627740479,18.73499538068237L21.50436832774048,10.328259620682372C21.510555727740478,10.322070990682374,21.516796627740476,10.315935190682373,21.523088927740478,10.309852810682372C21.54195262774048,10.291617990682372,21.560493027740478,10.274203390682374,21.58089872774048,10.257712050682374" fill="#FFFFFF" fill-opacity="1"/></g></g></g></svg>