<svg xmlns="http://www.w3.org/2000/svg" xmlns:xlink="http://www.w3.org/1999/xlink" fill="none" version="1.1" width="12" height="12" viewBox="0 0 12 12"><defs><clipPath id="master_svg0_265_10193"><rect x="0" y="0" width="12" height="12" rx="0"/></clipPath></defs><g clip-path="url(#master_svg0_265_10193)"><g><path d="M7.20001225234375,1.2002366174999999L7.20001225234375,4.2002368375L9.60001235234375,4.2002368375C9.82372475234375,4.2001373375,10.02891255234375,4.3245060375,10.13232615234375,4.5228822375C10.23573975234375,4.7212581375,10.22019955234375,4.9606919375,10.09201245234375,5.1440367375L5.89201215234375,11.1440369375C5.741994852343749,11.3589589375,5.46983315234375,11.4516349375,5.219830052343751,11.3729249375C4.96982695234375,11.2942139375,4.79984565234375,11.0623379375,4.80001215234375,10.8002379375L4.80001215234375,7.8002376375L3.80001215234375,7.8002371375L2.40001201234375,7.8002371375C2.17629948234375,7.8003354375,1.97111064234375,7.6759667375,1.86769795434375,7.4775915375C1.76428527734375,7.2792153375,1.77982492334375,7.0397820375,1.90801206234375,6.8564372375L6.10801215234375,0.8564366375C6.18571665234375,0.7454856775,6.29599805234375,0.6672318054999999,6.41892715234375,0.6284366385C6.53361705234375,0.5922417445,6.65931605234375,0.5903933325,6.77984045234375,0.6283825095L6.78001215234375,0.6284366385L6.78001215234375,0.6278366095L6.78018425234375,0.6278907895C7.03004835234375,0.7065346575,7.20001225234375,0.9382311075,7.20001225234375,1.2002366174999999ZM3.1680071523437503,6.8002376375L6.20001225234375,2.4688018375L6.20001225234375,5.2002368375L8.83201695234375,5.2002368375L5.80001165234375,9.5316734375L5.80001215234375,6.8002376375L3.1680071523437503,6.8002376375Z" fill-rule="evenodd" fill="#676F83" fill-opacity="1"/></g></g></svg>